<svg width="382" height="285" viewBox="0 0 382 285" fill="none" xmlns="http://www.w3.org/2000/svg">
<path d="M187.504 46.3788C143.97 46.3788 105.036 73.5645 89.9168 114.52C74.797 155.476 86.6869 201.545 119.719 229.993L153.612 190.386C137.096 176.162 131.151 153.127 138.711 132.649C146.27 112.172 165.737 98.5788 187.504 98.5788V46.3788Z" fill="#CB9434"/>
<path d="M286.257 183.71C296.804 151.879 291.463 116.903 271.901 89.6997C252.339 62.4961 220.94 46.3788 187.504 46.3788V98.5788C204.222 98.5788 219.922 106.637 229.702 120.239C239.483 133.841 242.154 151.329 236.88 167.245L286.257 183.71Z" fill="#66450C"/>
<path d="M119.719 229.993C146.031 252.654 181.867 260.677 215.286 251.39C248.706 242.102 275.318 216.724 286.257 183.71L236.881 167.245C231.411 183.751 218.105 196.44 201.395 201.084C184.686 205.728 166.768 201.717 153.612 190.386L119.719 229.993Z" fill="#BBBBBB"/>
<path d="M281.455 116.333C281.455 115.642 280.897 115.082 280.208 115.082C279.52 115.082 278.962 115.642 278.962 116.333C278.962 117.024 279.52 117.584 280.208 117.584C280.897 117.584 281.455 117.024 281.455 116.333Z" fill="#9E9E9E"/>
<path d="M10.58 39.68C10.58 40.9867 10.0933 42.0733 9.12 42.94C8.16 43.8067 6.98667 44.24 5.6 44.24C4.53333 44.24 3.58 43.9733 2.74 43.44C1.9 42.9067 1.25333 42.1733 0.8 41.24L2.68 39.92C3.09333 40.5467 3.52 41.0067 3.96 41.3C4.41333 41.5933 4.93333 41.74 5.52 41.74C6.2 41.74 6.75333 41.56 7.18 41.2C7.60667 40.8267 7.82 40.3267 7.82 39.7C7.82 39.0867 7.58667 38.62 7.12 38.3C6.66667 37.9667 6 37.8 5.12 37.8H3.46V37.1L6.22 33.24H1.82V30.8H10.32V31.52L7.4 35.64C8.28 35.8667 9.03333 36.34 9.66 37.06C10.2733 37.7533 10.58 38.6267 10.58 39.68ZM12.0413 30.8H21.3213V31.52L15.2813 44H12.3413L17.7013 33.24H12.0413V30.8ZM20.7369 42.38C20.7369 41.86 20.9169 41.42 21.2769 41.06C21.6369 40.7 22.0835 40.52 22.6169 40.52C23.1369 40.52 23.5702 40.7 23.9169 41.06C24.2769 41.42 24.4569 41.86 24.4569 42.38C24.4569 42.9133 24.2835 43.36 23.9369 43.72C23.5902 44.0667 23.1502 44.24 22.6169 44.24C22.0835 44.24 21.6369 44.0667 21.2769 43.72C20.9169 43.36 20.7369 42.9133 20.7369 42.38ZM25.967 30.8H35.247V31.52L29.207 44H26.267L31.627 33.24H25.967V30.8ZM37.8348 36.18C37.1682 35.54 36.8348 34.76 36.8348 33.84C36.8348 32.92 37.1682 32.1467 37.8348 31.52C38.5015 30.88 39.3082 30.56 40.2548 30.56C41.1882 30.56 41.9882 30.88 42.6548 31.52C43.3215 32.1467 43.6548 32.92 43.6548 33.84C43.6548 34.76 43.3215 35.54 42.6548 36.18C41.9882 36.82 41.1882 37.14 40.2548 37.14C39.3082 37.14 38.5015 36.82 37.8348 36.18ZM39.4548 44L47.0348 30.8H49.2148L41.6148 44H39.4548ZM41.5748 33.84C41.5748 33.4267 41.4482 33.0867 41.1948 32.82C40.9548 32.5533 40.6482 32.42 40.2748 32.42C39.8748 32.42 39.5482 32.5533 39.2948 32.82C39.0548 33.0867 38.9348 33.4267 38.9348 33.84C38.9348 34.2667 39.0548 34.6133 39.2948 34.88C39.5348 35.1467 39.8615 35.28 40.2748 35.28C40.6482 35.28 40.9548 35.1467 41.1948 34.88C41.4482 34.6133 41.5748 34.2667 41.5748 33.84ZM45.9948 43.26C45.3282 42.62 44.9948 41.84 44.9948 40.92C44.9948 40 45.3282 39.2267 45.9948 38.6C46.6615 37.96 47.4615 37.64 48.3948 37.64C49.3282 37.64 50.1282 37.96 50.7948 38.6C51.4748 39.2267 51.8148 40 51.8148 40.92C51.8148 41.84 51.4815 42.62 50.8148 43.26C50.1482 43.9 49.3415 44.22 48.3948 44.22C47.4615 44.22 46.6615 43.9 45.9948 43.26ZM49.3348 41.94C49.5882 41.6733 49.7148 41.3333 49.7148 40.92C49.7148 40.5067 49.5882 40.1667 49.3348 39.9C49.0948 39.6333 48.7882 39.5 48.4148 39.5C48.0015 39.5 47.6748 39.6333 47.4348 39.9C47.1948 40.1533 47.0748 40.4933 47.0748 40.92C47.0748 41.3467 47.1948 41.6933 47.4348 41.96C47.6748 42.2133 48.0015 42.34 48.4148 42.34C48.7882 42.34 49.0948 42.2067 49.3348 41.94Z" fill="#CB9434"/>
<path d="M1.46 11.4C1.4 7.62 4.54 4.52 8.32 4.58C10.56 4.58 12.48 5.58 13.7 7.28L12.52 8.2C11.5 6.82 10.08 6.02 8.32 6.02C5.32 5.96 3.02 8.4 3.08 11.38C3.02 14.4 5.36 16.88 8.4 16.82C10.32 16.82 11.9 15.9 12.8 14.46V12.68H8.3V11.28H14.36V14.8C13.78 15.84 12.94 16.68 11.86 17.3C10.8 17.92 9.62 18.22 8.32 18.22C4.54 18.28 1.4 15.18 1.46 11.4ZM16.4219 13.12C16.3619 10.34 18.7419 7.98 21.5219 8.04C24.3019 8 26.6819 10.34 26.6219 13.12C26.6819 15.86 24.2819 18.26 21.5019 18.2C18.7219 18.26 16.3819 15.86 16.4219 13.12ZM25.0419 13.14C25.0419 11.04 23.5019 9.46 21.5219 9.46C19.5219 9.46 18.0019 11.04 18.0019 13.14C18.0019 15.18 19.5219 16.78 21.5019 16.78C23.4819 16.78 25.0419 15.18 25.0419 13.14ZM29.3289 18V3H30.8689V18H29.3289ZM41.9708 3H43.5108V18H42.0508V16.46C41.3108 17.56 39.8908 18.22 38.3708 18.22C35.6308 18.22 33.5508 16 33.5508 13.14C33.5508 10.28 35.6308 8.04 38.3708 8.04C39.8308 8.04 41.1908 8.66 41.9708 9.7V3ZM41.9908 13.14C41.9908 10.66 40.3508 9.46 38.5908 9.46C36.6108 9.46 35.1308 11.02 35.1308 13.12C35.1308 15.22 36.6108 16.8 38.5908 16.8C40.3508 16.8 41.9908 15.6 41.9908 13.14Z" fill="#CB9434"/>
<path d="M174.429 53.801C174.429 55.2737 175.623 56.4676 177.096 56.4676C178.568 56.4676 179.762 55.2737 179.762 53.801C179.762 52.3282 178.568 51.1343 177.096 51.1343C175.623 51.1343 174.429 52.3282 174.429 53.801ZM150.834 25.0964L151.203 24.7589C151.108 24.6553 150.974 24.5964 150.834 24.5964V25.0964ZM0.5 24.5964C0.223858 24.5964 0 24.8202 0 25.0964C0 25.3725 0.223858 25.5964 0.5 25.5964V25.0964V24.5964ZM177.096 53.801L177.464 53.4634L151.203 24.7589L150.834 25.0964L150.465 25.4339L176.727 54.1385L177.096 53.801ZM150.834 25.0964V24.5964H0.5V25.0964V25.5964H150.834V25.0964Z" fill="#CB9434"/>
<path d="M10.58 277.68C10.58 278.987 10.0933 280.073 9.12 280.94C8.16 281.807 6.98667 282.24 5.6 282.24C4.53333 282.24 3.58 281.973 2.74 281.44C1.9 280.907 1.25333 280.173 0.8 279.24L2.68 277.92C3.09333 278.547 3.52 279.007 3.96 279.3C4.41333 279.593 4.93333 279.74 5.52 279.74C6.2 279.74 6.75333 279.56 7.18 279.2C7.60667 278.827 7.82 278.327 7.82 277.7C7.82 277.087 7.58667 276.62 7.12 276.3C6.66667 275.967 6 275.8 5.12 275.8H3.46V275.1L6.22 271.24H1.82V268.8H10.32V269.52L7.4 273.64C8.28 273.867 9.03333 274.34 9.66 275.06C10.2733 275.753 10.58 276.627 10.58 277.68ZM12.5966 275.3C12.5966 273.273 13.0432 271.647 13.9366 270.42C14.8299 269.18 16.1299 268.56 17.8366 268.56C19.5432 268.56 20.8366 269.18 21.7166 270.42C22.6099 271.647 23.0566 273.273 23.0566 275.3C23.0566 277.34 22.6032 279.007 21.6966 280.3C20.7899 281.593 19.5032 282.24 17.8366 282.24C16.1566 282.24 14.8632 281.593 13.9566 280.3C13.0499 279.007 12.5966 277.34 12.5966 275.3ZM20.2766 275.32C20.2766 272.48 19.4632 271.06 17.8366 271.06C16.1966 271.06 15.3766 272.48 15.3766 275.32C15.3766 278.267 16.1966 279.74 17.8366 279.74C19.4632 279.74 20.2766 278.267 20.2766 275.32ZM24.9166 280.38C24.9166 279.86 25.0966 279.42 25.4566 279.06C25.8166 278.7 26.2632 278.52 26.7966 278.52C27.3166 278.52 27.7499 278.7 28.0966 279.06C28.4566 279.42 28.6366 279.86 28.6366 280.38C28.6366 280.913 28.4632 281.36 28.1166 281.72C27.7699 282.067 27.3299 282.24 26.7966 282.24C26.2632 282.24 25.8166 282.067 25.4566 281.72C25.0966 281.36 24.9166 280.913 24.9166 280.38ZM30.1467 268.8H39.4267V269.52L33.3867 282H30.4467L35.8067 271.24H30.1467V268.8ZM42.0145 274.18C41.3479 273.54 41.0145 272.76 41.0145 271.84C41.0145 270.92 41.3479 270.147 42.0145 269.52C42.6812 268.88 43.4879 268.56 44.4345 268.56C45.3679 268.56 46.1679 268.88 46.8345 269.52C47.5012 270.147 47.8345 270.92 47.8345 271.84C47.8345 272.76 47.5012 273.54 46.8345 274.18C46.1679 274.82 45.3679 275.14 44.4345 275.14C43.4879 275.14 42.6812 274.82 42.0145 274.18ZM43.6345 282L51.2145 268.8H53.3945L45.7945 282H43.6345ZM45.7545 271.84C45.7545 271.427 45.6279 271.087 45.3745 270.82C45.1345 270.553 44.8279 270.42 44.4545 270.42C44.0545 270.42 43.7279 270.553 43.4745 270.82C43.2345 271.087 43.1145 271.427 43.1145 271.84C43.1145 272.267 43.2345 272.613 43.4745 272.88C43.7145 273.147 44.0412 273.28 44.4545 273.28C44.8279 273.28 45.1345 273.147 45.3745 272.88C45.6279 272.613 45.7545 272.267 45.7545 271.84ZM50.1745 281.26C49.5079 280.62 49.1745 279.84 49.1745 278.92C49.1745 278 49.5079 277.227 50.1745 276.6C50.8412 275.96 51.6412 275.64 52.5745 275.64C53.5079 275.64 54.3079 275.96 54.9745 276.6C55.6545 277.227 55.9945 278 55.9945 278.92C55.9945 279.84 55.6612 280.62 54.9945 281.26C54.3279 281.9 53.5212 282.22 52.5745 282.22C51.6412 282.22 50.8412 281.9 50.1745 281.26ZM53.5145 279.94C53.7679 279.673 53.8945 279.333 53.8945 278.92C53.8945 278.507 53.7679 278.167 53.5145 277.9C53.2745 277.633 52.9679 277.5 52.5945 277.5C52.1812 277.5 51.8545 277.633 51.6145 277.9C51.3745 278.153 51.2545 278.493 51.2545 278.92C51.2545 279.347 51.3745 279.693 51.6145 279.96C51.8545 280.213 52.1812 280.34 52.5945 280.34C52.9679 280.34 53.2745 280.207 53.5145 279.94Z" fill="#BBBBBB"/>
<path d="M1.32 254.505L2.48 253.645C3.46 255.145 4.7 255.905 6.16 255.905C7.74 255.905 8.82 255.045 8.82 253.705C8.82 252.505 8.1 252.105 6.62 251.385L5.14 250.685C3.32 249.825 2.16 248.905 2.16 247.145C2.16 245.085 3.98 243.705 6.14 243.705C7.9 243.705 9.42 244.605 10.28 245.945L9.14 246.805C8.42 245.745 7.32 245.145 6.12 245.145C4.82 245.145 3.78 245.845 3.78 247.065C3.78 247.445 3.86 247.765 4.04 248.025C4.38 248.525 4.86 248.785 5.9 249.285L7.36 249.985C9.44 251.005 10.44 251.965 10.44 253.665C10.44 255.845 8.64 257.345 6.18 257.345C4.12 257.345 2.36 256.265 1.32 254.505ZM13.3523 257.125V247.385H14.8923V257.125H13.3523ZM12.9723 243.665C12.9723 243.045 13.4923 242.545 14.1323 242.545C14.7523 242.545 15.2723 243.045 15.2723 243.665C15.2723 244.305 14.7723 244.785 14.1323 244.785C13.4923 244.785 12.9723 244.305 12.9723 243.665ZM18.2742 257.125V242.125H19.8142V257.125H18.2742ZM30.1161 247.385H31.7561L27.1761 257.345H26.6161L22.0161 247.385H23.6561L26.8961 254.725L30.1161 247.385ZM42.1867 252.725H34.4867C34.6667 254.645 36.1467 255.925 38.0667 255.925C39.1667 255.925 40.1667 255.485 41.0467 254.605L41.9467 255.645C40.9267 256.705 39.5867 257.345 38.0467 257.345C35.1467 257.345 32.8867 255.125 32.8867 252.265C32.8867 249.445 35.0867 247.165 37.8667 247.165C40.3867 247.165 42.3067 248.985 42.3067 251.565C42.3067 251.945 42.2667 252.325 42.1867 252.725ZM34.5467 251.365H40.7267C40.7067 249.625 39.4467 248.565 37.8267 248.565C36.2067 248.565 34.8867 249.685 34.5467 251.365ZM50.1925 247.385V248.745H49.6125C47.9725 248.745 46.5525 249.805 46.5525 251.605V257.125H45.0125V247.385H46.4525V248.765C47.1525 247.825 48.2925 247.305 49.4725 247.305C49.6925 247.305 49.9325 247.325 50.1925 247.385Z" fill="#BBBBBB"/>
<path d="M174.429 234.141C174.429 232.668 175.623 231.474 177.096 231.474C178.568 231.474 179.762 232.668 179.762 234.141C179.762 235.613 178.568 236.807 177.096 236.807C175.623 236.807 174.429 235.613 174.429 234.141ZM150.834 262.845L151.203 263.183C151.108 263.286 150.974 263.345 150.834 263.345V262.845ZM0.5 263.345C0.223858 263.345 0 263.121 0 262.845C0 262.569 0.223858 262.345 0.5 262.345V262.845V263.345ZM177.096 234.141L177.464 234.478L151.203 263.183L150.834 262.845L150.465 262.508L176.727 233.803L177.096 234.141ZM150.834 262.845V263.345H0.5V262.845V262.345H150.834V262.845Z" fill="#BBBBBB"/>
<path d="M331.58 40.68C331.58 41.9867 331.093 43.0733 330.12 43.94C329.16 44.8067 327.987 45.24 326.6 45.24C325.533 45.24 324.58 44.9733 323.74 44.44C322.9 43.9067 322.253 43.1733 321.8 42.24L323.68 40.92C324.093 41.5467 324.52 42.0067 324.96 42.3C325.413 42.5933 325.933 42.74 326.52 42.74C327.2 42.74 327.753 42.56 328.18 42.2C328.607 41.8267 328.82 41.3267 328.82 40.7C328.82 40.0867 328.587 39.62 328.12 39.3C327.667 38.9667 327 38.8 326.12 38.8H324.46V38.1L327.22 34.24H322.82V31.8H331.32V32.52L328.4 36.64C329.28 36.8667 330.033 37.34 330.66 38.06C331.273 38.7533 331.58 39.6267 331.58 40.68ZM337.777 31.8H338.677V45H335.977V35L333.477 35.8L332.837 33.42L337.777 31.8ZM341.444 43.38C341.444 42.86 341.624 42.42 341.984 42.06C342.344 41.7 342.791 41.52 343.324 41.52C343.844 41.52 344.277 41.7 344.624 42.06C344.984 42.42 345.164 42.86 345.164 43.38C345.164 43.9133 344.991 44.36 344.644 44.72C344.297 45.0667 343.857 45.24 343.324 45.24C342.791 45.24 342.344 45.0667 341.984 44.72C341.624 44.36 341.444 43.9133 341.444 43.38ZM356.589 40.52C356.589 41.8533 356.109 42.9733 355.149 43.88C354.189 44.7867 353.049 45.24 351.729 45.24C350.436 45.2667 349.296 44.8133 348.309 43.88C347.336 42.9467 346.863 41.82 346.889 40.5C346.889 40.0067 346.963 39.5267 347.109 39.06C347.323 38.42 347.849 37.52 348.689 36.36L351.989 31.8H355.169L352.129 36.04H352.209C353.343 36.0133 354.363 36.4467 355.269 37.34C356.176 38.22 356.616 39.28 356.589 40.52ZM353.269 42.12C353.696 41.6933 353.909 41.16 353.909 40.52C353.909 39.88 353.696 39.3533 353.269 38.94C352.856 38.5133 352.343 38.3 351.729 38.3C351.116 38.3 350.596 38.5133 350.169 38.94C349.756 39.3667 349.549 39.8933 349.549 40.52C349.549 41.1467 349.756 41.68 350.169 42.12C350.596 42.5467 351.116 42.76 351.729 42.76C352.343 42.76 352.856 42.5467 353.269 42.12ZM359.069 37.18C358.403 36.54 358.069 35.76 358.069 34.84C358.069 33.92 358.403 33.1467 359.069 32.52C359.736 31.88 360.543 31.56 361.489 31.56C362.423 31.56 363.223 31.88 363.889 32.52C364.556 33.1467 364.889 33.92 364.889 34.84C364.889 35.76 364.556 36.54 363.889 37.18C363.223 37.82 362.423 38.14 361.489 38.14C360.543 38.14 359.736 37.82 359.069 37.18ZM360.689 45L368.269 31.8H370.449L362.849 45H360.689ZM362.809 34.84C362.809 34.4267 362.683 34.0867 362.429 33.82C362.189 33.5533 361.883 33.42 361.509 33.42C361.109 33.42 360.783 33.5533 360.529 33.82C360.289 34.0867 360.169 34.4267 360.169 34.84C360.169 35.2667 360.289 35.6133 360.529 35.88C360.769 36.1467 361.096 36.28 361.509 36.28C361.883 36.28 362.189 36.1467 362.429 35.88C362.683 35.6133 362.809 35.2667 362.809 34.84ZM367.229 44.26C366.563 43.62 366.229 42.84 366.229 41.92C366.229 41 366.563 40.2267 367.229 39.6C367.896 38.96 368.696 38.64 369.629 38.64C370.563 38.64 371.363 38.96 372.029 39.6C372.709 40.2267 373.049 41 373.049 41.92C373.049 42.84 372.716 43.62 372.049 44.26C371.383 44.9 370.576 45.22 369.629 45.22C368.696 45.22 367.896 44.9 367.229 44.26ZM370.569 42.94C370.823 42.6733 370.949 42.3333 370.949 41.92C370.949 41.5067 370.823 41.1667 370.569 40.9C370.329 40.6333 370.023 40.5 369.649 40.5C369.236 40.5 368.909 40.6333 368.669 40.9C368.429 41.1533 368.309 41.4933 368.309 41.92C368.309 42.3467 368.429 42.6933 368.669 42.96C368.909 43.2133 369.236 43.34 369.649 43.34C370.023 43.34 370.329 43.2067 370.569 42.94Z" fill="#66450C"/>
<path d="M321.65 14.2C321.65 16.4 320.05 18 317.47 18H312.03V4.8H316.57C317.71 4.8 318.63 5.12 319.31 5.74C319.99 6.36 320.33 7.16 320.33 8.14C320.33 9.24 319.87 10.12 319.07 10.74C320.69 11.22 321.65 12.5 321.65 14.2ZM316.41 6.2H313.59V10.3H316.41C317.91 10.3 318.73 9.5 318.73 8.24C318.73 6.98 317.93 6.2 316.41 6.2ZM320.05 14.16C320.05 12.7 319.05 11.72 317.31 11.72H313.59V16.6H317.31C319.05 16.6 320.05 15.62 320.05 14.16ZM329.414 8.26V9.62H328.834C327.194 9.62 325.774 10.68 325.774 12.48V18H324.234V8.26H325.674V9.64C326.374 8.7 327.514 8.18 328.694 8.18C328.914 8.18 329.154 8.2 329.414 8.26ZM330.585 13.12C330.525 10.34 332.905 7.98 335.685 8.04C338.465 8 340.845 10.34 340.785 13.12C340.845 15.86 338.445 18.26 335.665 18.2C332.885 18.26 330.545 15.86 330.585 13.12ZM339.205 13.14C339.205 11.04 337.665 9.46 335.685 9.46C333.685 9.46 332.165 11.04 332.165 13.14C332.165 15.18 333.685 16.78 335.665 16.78C337.645 16.78 339.205 15.18 339.205 13.14ZM351.552 11.88V18H350.012V12.06C350.012 10.52 349.092 9.46 347.592 9.46C346.092 9.46 345.032 10.54 345.032 12.06V18H343.492V8.26H344.932V9.3C345.652 8.5 346.712 8.04 347.932 8.04C350.192 8.04 351.552 9.58 351.552 11.88ZM356.02 16.64H361.66V18H353.66V17.54L359.22 9.64H354.12V8.26H361.6V8.72L356.02 16.64ZM372.502 13.6H364.802C364.982 15.52 366.462 16.8 368.382 16.8C369.482 16.8 370.482 16.36 371.362 15.48L372.262 16.52C371.242 17.58 369.902 18.22 368.362 18.22C365.462 18.22 363.202 16 363.202 13.14C363.202 10.32 365.402 8.04 368.182 8.04C370.702 8.04 372.622 9.86 372.622 12.44C372.622 12.82 372.582 13.2 372.502 13.6ZM364.862 12.24H371.042C371.022 10.5 369.762 9.44 368.142 9.44C366.522 9.44 365.202 10.56 364.862 12.24Z" fill="#66450C"/>
<path d="M201.571 53.801C201.571 55.2737 200.377 56.4676 198.904 56.4676C197.432 56.4676 196.238 55.2737 196.238 53.801C196.238 52.3282 197.432 51.1343 198.904 51.1343C200.377 51.1343 201.571 52.3282 201.571 53.801ZM225.166 25.0964L224.797 24.7589C224.892 24.6553 225.026 24.5964 225.166 24.5964V25.0964ZM375.5 24.5964C375.776 24.5964 376 24.8202 376 25.0964C376 25.3725 375.776 25.5964 375.5 25.5964V25.0964V24.5964ZM198.904 53.801L198.536 53.4634L224.797 24.7589L225.166 25.0964L225.535 25.4339L199.273 54.1385L198.904 53.801ZM225.166 25.0964V24.5964H375.5V25.0964V25.5964H225.166V25.0964Z" fill="#66450C"/>
<path d="M178.685 135.44H179.149V146H177.901V136.912L175.597 137.632L175.293 136.56L178.685 135.44ZM184.747 135.44H185.211V146H183.963V136.912L181.659 137.632L181.355 136.56L184.747 135.44ZM195.354 142.944V144.032H193.818V146H192.57V144.032H187.274V143.68L190.746 135.44H192.026L188.858 142.944H192.57V139.424H193.818V142.944H195.354ZM170.435 158.208H171.747L168.467 166.176H168.019L165.363 160.288L162.723 166.176H162.291L158.979 158.208H160.291L162.547 163.984L165.139 158.032H165.603L168.227 163.936L170.435 158.208ZM173.532 166V158.208H174.764V166H173.532ZM173.228 155.232C173.228 154.736 173.644 154.336 174.156 154.336C174.652 154.336 175.068 154.736 175.068 155.232C175.068 155.744 174.668 156.128 174.156 156.128C173.644 156.128 173.228 155.744 173.228 155.232ZM183.917 161.104V166H182.685V161.248C182.685 160.016 181.949 159.168 180.749 159.168C179.549 159.168 178.701 160.032 178.701 161.248V166H177.469V158.208H178.621V159.04C179.197 158.4 180.045 158.032 181.021 158.032C182.829 158.032 183.917 159.264 183.917 161.104ZM192.98 161.104V166H191.748V161.248C191.748 160.016 191.012 159.168 189.812 159.168C188.612 159.168 187.764 160.032 187.764 161.248V166H186.532V158.208H187.684V159.04C188.26 158.4 189.108 158.032 190.084 158.032C191.892 158.032 192.98 159.264 192.98 161.104ZM202.474 162.48H196.314C196.458 164.016 197.642 165.04 199.178 165.04C200.058 165.04 200.858 164.688 201.562 163.984L202.282 164.816C201.466 165.664 200.394 166.176 199.162 166.176C196.842 166.176 195.034 164.4 195.034 162.112C195.034 159.856 196.794 158.032 199.018 158.032C201.034 158.032 202.57 159.488 202.57 161.552C202.57 161.856 202.538 162.16 202.474 162.48ZM196.362 161.392H201.306C201.29 160 200.282 159.152 198.986 159.152C197.69 159.152 196.634 160.048 196.362 161.392ZM208.879 158.208V159.296H208.415C207.103 159.296 205.967 160.144 205.967 161.584V166H204.735V158.208H205.887V159.312C206.447 158.56 207.359 158.144 208.303 158.144C208.479 158.144 208.671 158.16 208.879 158.208ZM209.796 164.656L210.58 163.84C211.332 164.608 211.94 165.04 212.82 165.04C213.668 165.04 214.308 164.624 214.308 163.936C214.308 163.312 213.908 163.072 212.948 162.688L212.196 162.368C210.9 161.84 210.26 161.248 210.26 160.208C210.26 158.848 211.396 158.032 212.884 158.032C213.972 158.032 214.852 158.496 215.492 159.264L214.74 160.032C214.212 159.504 213.54 159.168 212.82 159.168C212.052 159.168 211.524 159.52 211.524 160.144C211.524 160.64 211.844 160.88 212.788 161.28L213.508 161.584C214.964 162.208 215.572 162.816 215.572 163.888C215.572 164.608 215.3 165.184 214.772 165.584C214.244 165.984 213.604 166.176 212.836 166.176C211.54 166.176 210.484 165.552 209.796 164.656Z" fill="#CB9434"/>
<path d="M114.76 134.56V136.84H113.08V139H110.38V136.84H103.82V136.12L107.9 125.8H110.68L107.18 134.56H110.38V130.86H113.08V134.56H114.76ZM125.123 134.68C125.123 135.987 124.636 137.073 123.663 137.94C122.703 138.807 121.53 139.24 120.143 139.24C119.076 139.24 118.123 138.973 117.283 138.44C116.443 137.907 115.796 137.173 115.343 136.24L117.223 134.92C117.636 135.547 118.063 136.007 118.503 136.3C118.956 136.593 119.476 136.74 120.063 136.74C120.743 136.74 121.296 136.56 121.723 136.2C122.15 135.827 122.363 135.327 122.363 134.7C122.363 134.087 122.13 133.62 121.663 133.3C121.21 132.967 120.543 132.8 119.663 132.8H118.003V132.1L120.763 128.24H116.363V125.8H124.863V126.52L121.943 130.64C122.823 130.867 123.576 131.34 124.203 132.06C124.816 132.753 125.123 133.627 125.123 134.68Z" fill="white"/>
<path d="M259.58 134.68C259.58 135.987 259.093 137.073 258.12 137.94C257.16 138.807 255.987 139.24 254.6 139.24C253.533 139.24 252.58 138.973 251.74 138.44C250.9 137.907 250.253 137.173 249.8 136.24L251.68 134.92C252.093 135.547 252.52 136.007 252.96 136.3C253.413 136.593 253.933 136.74 254.52 136.74C255.2 136.74 255.753 136.56 256.18 136.2C256.607 135.827 256.82 135.327 256.82 134.7C256.82 134.087 256.587 133.62 256.12 133.3C255.667 132.967 255 132.8 254.12 132.8H252.46V132.1L255.22 128.24H250.82V125.8H259.32V126.52L256.4 130.64C257.28 130.867 258.033 131.34 258.66 132.06C259.273 132.753 259.58 133.627 259.58 134.68ZM270.957 134.52C270.957 135.853 270.477 136.973 269.517 137.88C268.557 138.787 267.417 139.24 266.097 139.24C264.803 139.267 263.663 138.813 262.677 137.88C261.703 136.947 261.23 135.82 261.257 134.5C261.257 134.007 261.33 133.527 261.477 133.06C261.69 132.42 262.217 131.52 263.057 130.36L266.357 125.8H269.537L266.497 130.04H266.577C267.71 130.013 268.73 130.447 269.637 131.34C270.543 132.22 270.983 133.28 270.957 134.52ZM267.637 136.12C268.063 135.693 268.277 135.16 268.277 134.52C268.277 133.88 268.063 133.353 267.637 132.94C267.223 132.513 266.71 132.3 266.097 132.3C265.483 132.3 264.963 132.513 264.537 132.94C264.123 133.367 263.917 133.893 263.917 134.52C263.917 135.147 264.123 135.68 264.537 136.12C264.963 136.547 265.483 136.76 266.097 136.76C266.71 136.76 267.223 136.547 267.637 136.12Z" fill="white"/>
<path d="M186.58 234.68C186.58 235.987 186.093 237.073 185.12 237.94C184.16 238.807 182.987 239.24 181.6 239.24C180.533 239.24 179.58 238.973 178.74 238.44C177.9 237.907 177.253 237.173 176.8 236.24L178.68 234.92C179.093 235.547 179.52 236.007 179.96 236.3C180.413 236.593 180.933 236.74 181.52 236.74C182.2 236.74 182.753 236.56 183.18 236.2C183.607 235.827 183.82 235.327 183.82 234.7C183.82 234.087 183.587 233.62 183.12 233.3C182.667 232.967 182 232.8 181.12 232.8H179.46V232.1L182.22 228.24H177.82V225.8H186.32V226.52L183.4 230.64C184.28 230.867 185.033 231.34 185.66 232.06C186.273 232.753 186.58 233.627 186.58 234.68ZM197.857 234.66C197.857 235.993 197.37 237.093 196.397 237.96C195.423 238.813 194.223 239.24 192.797 239.24C191.703 239.24 190.723 238.973 189.857 238.44C189.003 237.907 188.35 237.173 187.897 236.24L189.777 234.92C190.563 236.133 191.543 236.74 192.717 236.74C193.41 236.74 193.977 236.56 194.417 236.2C194.857 235.827 195.077 235.327 195.077 234.7C195.077 233.433 194.177 232.8 192.377 232.8H189.297V225.8H197.097V228.24H191.897V230.64C192.43 230.533 192.93 230.48 193.397 230.48C194.61 230.48 195.657 230.86 196.537 231.62C197.417 232.367 197.857 233.38 197.857 234.66Z" fill="white"/>
</svg>
